/* XPM */
static char *character[] = {
/* columns rows colors chars-per-pixel */
"32 32 15 1 ",
"  c None",
". c #232323",
"X c #3D2D26",
"o c gray22",
"O c #5E1F00",
"+ c #462F26",
"@ c #69423A",
"# c gray30",
"$ c #7C5E4F",
"% c #8D3000",
"& c #C56400",
"* c #E17C00",
"= c #8A7461",
"- c #FF9500",
"; c #FFB300",
/* pixels */
"            %%%%%%%%%           ",
"          %%&&&%-%&&&%%         ",
"        %%&&&%%&*&%%&&&%%       ",
"       %&*&--*&%%%&*--&*&%      ",
"      %&*&---*%&&&%*---&*&%     ",
"     %&*&-;-*%*---*%*-;-&*&%    ",
"     %*&----&*-----*&----&*%    ",
"    %&*&---*&--;;;--&*---&*&%   ",
"    %&&----&*--;;;--*&----&&%   ",
"    %&&*---&*-------*&---*&&%   ",
"    %&&**--O*-------*O--**&&%   ",
"    %&&***OOO-------OOO***&&%   ",
"    %&%**OOOOO-----OOOOO**%&%   ",
"     %%**&OOOO**O**OOOO&**%%    ",
"     %%&***&***OOO***&***&%%    ",
"      %&&O*&*********&*O&&%     ",
"       %&&OO**OOOOO**OO&&%      ",
"        %&&OOOOOOOOOOO&&%       ",
"        X%%&%&&&&&&&%&%%X       ",
"       X+=$%%%%%%%%%%%$=+X      ",
"       X=$@$===$$$===$@$=X      ",
"      X+$@X$====$====$X@$+X     ",
"      X$$+X@$==@@@==$@X+$$X     ",
"     X+=@XX+@@@$=$@@@+XX@=+X    ",
"     X==+X.@$$$===$$$@.X+==X    ",
"     X=$X X.o#######o.X X$=X    ",
"      XX  X+=.o###o.=+X  XX     ",
"           +@$@...@$@+          ",
"           X@@@X X@@@X          ",
"           X$=$X X$=$X          ",
"           X==$X X$==X          ",
"            XXX   XXX           "
};
