/* XPM */
static char *character_2[] = {
/* columns rows colors chars-per-pixel */
"32 32 9 1 ",
"  c None",
". c #AD7338",
"X c #D1812E",
"o c #D6952F",
"O c #DF9D35",
"+ c #FBAE36",
"@ c #FBC236",
"# c #FBF236",
"$ c #FFF75B",
/* pixels */
"                                ",
"                                ",
"                                ",
"                                ",
"                                ",
"                                ",
"         OOOO                   ",
"        O$$$#o                  ",
"       O$$####o                 ",
"       #X######o                ",
"      O#X######o                ",
"     O##X#####@o                ",
"    O########@@o        OO      ",
"    XXXXX####@o        O$$O     ",
"       XXX@##X       OO$$#o     ",
"        X.@##.XXooOOO$$###o     ",
"        X@+###############@o    ",
"        .################@@o    ",
"         X##############@@@o    ",
"         .##############@@+X    ",
"         .#############@@++X    ",
"          X##########@@@@+X     ",
"           .########@@@++X      ",
"            .####@@@@+++X       ",
"             ..@@@@+++.X        ",
"               ......X          ",
"                                ",
"                                ",
"                                ",
"                                ",
"                                ",
"                                "
};
