/* XPM */
static char *character_0[] = {
/* columns rows colors chars-per-pixel */
"32 32 5 1 ",
"  c None",
". c #222034",
"X c #524B24",
"o c #735D2B",
"O c #8A6F30",
/* pixels */
"                                ",
"                                ",
"                                ",
"           XXXXXXXXXX           ",
"        XXXOOOOoOOOOOXXX        ",
"       XOOO..........OOOX       ",
"      XO................OX      ",
"     XO..................OX     ",
"    XO....................OX    ",
"   XO......................oX   ",
"   XO......................oX   ",
"   XO......................oX   ",
"   XO......................oX   ",
"   XO......................oX   ",
"   XO......................oX   ",
"   XO......................oX   ",
"   XO......................oX   ",
"   XO......................oX   ",
"   XO......................oX   ",
"   XO......................oX   ",
"   XO......................oX   ",
"   XO......................oX   ",
"   XO......................oX   ",
"   XO......................oX   ",
"   XO......................oX   ",
"   XO......................oX   ",
"   XO......................oX   ",
"   XO......................oX   ",
"   XO......................XX   ",
"                                ",
"                                ",
"                                "
};
