/* XPM */
static char *tile[] = {
/* columns rows colors chars-per-pixel */
"32 32 4 1 ",
"  c #4F2C12",
". c #5B3715",
"X c #724C21",
"o c #8C6635",
/* pixels */
"o..XooX XoX .XXooXXX.XX .XXXXXXX",
"o. .ooX Xooo.oooX... .X.XoooX..X",
".X .XX.. XooX..X.   .. XoooXX. .",
"ooX .. XX XX  ..X. .XX.oXoooXX. ",
"ooX.   oXX. ..XooX.XoooXoooooX.X",
"oX XX. ooX .XooooXXoooX.oXoooX.o",
"X XXoX.XX. .XoooXXXooX..XXXXoX.X",
" .XooX...   .XoX.XoooX  .XooX.  ",
"X .oX.  ..XooooXX .oX.  .Xo. XXo",
"..XooXX.XX.XooXX..XooXXXXooX..XX",
" .XooooXoX...XX. .XooooooooX. .X",
". .XooooX. .XooX. .XooooooX. .Xo",
".  .XXoX  .XoooX.  .XXooXX.  .Xo",
". .XXXX ..XooooX. .XXXXXXXX. .Xo",
"X.XooX.. .XoooooX.XooX..XooX.Xoo",
"oX.oooXX ..XooXooX.oooXXooo.XooX",
"o..XooX .XXXXXXXo..XooXoooX..oXX",
"o. .ooX.XoooX..Xo. .ooXXoo. .oX.",
".X .XX.XoooXX. ..X .XX..XX. X.. ",
"ooX .. oXoooXX. ooX .. X.. Xoo .",
"ooX.   XoooooX.XooX.   oX .XooX.",
"oX XX. .oXoooX.ooX XX. X.XX Xoo.",
"X XXoX..XXXXoX.XX XXoX..XoXX XX.",
" .XooX. .XooX.   .XooX..XooX.   ",
"X .oX.  .XooX.   .XooX. ..XoX. X",
"..XooXX.XXXXoX.XX XXoX..XooXoX. ",
" .Xoooo.oXoooX.ooX XX. XXXooooX.",
". .XoooXoooooX.XooX.   oXoooooX.",
".  .XXooXoooXX. ooX .. oXoooXoXX",
". .XXXXXoooXX. ..X .XX.XoooXXXXo",
"X.XooX..XoooX..Xo. .ooX.XXXX..Xo",
"oX.oooX .XXXXXXXo..XooX .... .XX"
};
