/* XPM */
static char *character_3[] = {
/* columns rows colors chars-per-pixel */
"32 32 3 1 ",
"  c #663931",
". c #8F563B",
"X c #D9A066",
/* pixels */
".XXXXXXXXXXXXXXXXXXXXXXXXXXXXXX.",
"XXXXXXXXXXXXXXXXXXXXXXXXXXXXXX. ",
"XX............................  ",
"XX............................  ",
"XX............................  ",
"XX............................  ",
"XX............................  ",
"XX............................  ",
"XX............................  ",
"XX............................  ",
"XX............................  ",
"XX............................  ",
"XX............................  ",
"XX............................  ",
"XX............................  ",
"XX............................  ",
"XX............................  ",
"XX............................  ",
"XX............................  ",
"XX............................  ",
"XX............................  ",
"XX............................  ",
"XX............................  ",
"XX............................  ",
"XX............................  ",
"XX............................  ",
"XX............................  ",
"XX............................  ",
"XX............................  ",
"XX............................  ",
"X.                              ",
".                              ."
};
